<svg width="699" height="195" viewBox="0 0 699 195" fill="none" xmlns="http://www.w3.org/2000/svg">
<path d="M232.137 80.6547V74.3607L239.726 75.3277L237.089 77.3217C237.842 76.3487 238.506 75.0877 239.08 73.5237C239.654 71.9647 240.164 70.0807 240.613 67.8727C241.062 65.6647 241.456 63.1287 241.798 60.2557C242.14 57.3857 242.452 54.1577 242.74 50.5667L242.956 48.0387L235.797 46.7997V44.9677H267.661V46.6367C266.944 46.8907 266.126 47.1227 265.213 47.3377C264.297 47.5527 263.229 47.7497 262.009 47.9287V77.4267L267.661 78.5037V80.3877H250.922V78.8277C251.855 78.4687 252.786 78.1717 253.721 77.9387C254.655 77.7067 255.622 77.5357 256.627 77.4267L257.112 48.3627H246.454C246.058 54.5697 245.556 59.7737 244.948 63.9697C244.336 68.1707 243.502 71.5177 242.444 74.0097C241.386 76.5027 240.022 78.2717 238.353 79.3097C236.684 80.3527 234.612 80.7997 232.137 80.6547Z" fill="#665A40"/>
<path d="M280.742 65.801H299.258V68.924H280.742V65.801ZM305.125 77.641C305.772 77.786 306.398 77.939 307.009 78.101C307.618 78.263 308.246 78.452 308.893 78.666V80.388H293.984V78.666L299.42 77.588L288.87 46.799H290.161L279.288 77.374C280.365 77.554 281.423 77.75 282.464 77.965C283.504 78.18 284.544 78.416 285.587 78.666V80.388H271.536V78.666L275.251 77.374L287.309 44.968H293.176L305.125 77.641Z" fill="#665A40"/>
<path d="M311.691 80.3876V78.7186C313.126 78.0746 315.009 77.6406 317.341 77.4266L317.88 48.0386L311.691 46.7996V44.9686H339.789L339.679 56.6506H337.527L335.751 48.3626H320.628L322.78 46.1556V77.0496H332.307C334.136 76.5856 335.553 75.7746 336.558 74.6276C337.564 73.4796 338.065 72.0996 338.065 70.4836C338.065 68.2236 337.411 66.5196 336.101 65.3716C334.791 64.2236 332.899 63.6456 330.421 63.6456H320.358V60.2556H331.5C335.124 60.2556 338.002 61.1536 340.137 62.9496C342.273 64.7416 343.341 67.1106 343.341 70.0546C343.341 73.2126 342.148 75.7226 339.76 77.5886C337.376 79.4546 334.171 80.3876 330.152 80.3876H311.691Z" fill="#665A40"/>
<path d="M367.132 77.4789C369.319 77.4789 371.232 76.8609 372.863 75.6259C374.497 74.3869 375.778 72.6469 376.714 70.4049C377.645 68.1619 378.113 65.5339 378.113 62.5159C378.113 59.5769 377.662 57.0269 376.767 54.8719C375.868 52.7209 374.596 51.0609 372.944 49.8959C371.293 48.7309 369.32 48.1439 367.025 48.1439C365.518 48.1439 364 48.4159 362.476 48.9539C360.951 49.4929 359.561 50.3159 358.305 51.4289L360.241 49.1689C357.515 53.4749 356.152 58.0869 356.152 63.0019C356.152 65.9109 356.607 68.4469 357.523 70.6199C358.438 72.7879 359.722 74.4739 361.371 75.6789C363.023 76.8789 364.941 77.4789 367.132 77.4789ZM366.7 80.8739C363.544 80.8739 360.772 80.1459 358.384 78.6919C355.999 77.2379 354.142 75.1839 352.815 72.5289C351.486 69.8749 350.823 66.7509 350.823 63.1639C350.823 59.5019 351.54 56.2739 352.977 53.4749C354.411 50.6759 356.376 48.4769 358.87 46.8819C361.362 45.2839 364.205 44.4859 367.402 44.4859C370.594 44.4859 373.403 45.2219 375.824 46.6939C378.247 48.1659 380.13 50.2289 381.478 52.8829C382.822 55.5379 383.493 58.6259 383.493 62.1389C383.493 65.8709 382.796 69.1389 381.397 71.9379C379.997 74.7369 378.032 76.9269 375.502 78.5039C372.973 80.0809 370.038 80.8739 366.7 80.8739Z" fill="#665A40"/>
<path d="M408.037 44.9682C410.44 44.9682 412.485 45.3842 414.175 46.2072C415.86 47.0352 417.162 48.2092 418.075 49.7342C418.99 51.2582 419.448 53.0802 419.448 55.1962C419.448 57.4562 418.909 59.4492 417.834 61.1712C416.757 62.8922 415.25 64.2332 413.311 65.1832C411.375 66.1342 409.096 66.6072 406.475 66.6072H397.487V63.2692H409.868C411.375 62.2312 412.479 61.1012 413.178 59.8792C413.879 58.6612 414.226 57.2242 414.226 55.5722C414.226 53.2072 413.59 51.4112 412.317 50.1892C411.042 48.9712 409.203 48.3632 406.8 48.3632H400.124V77.4262L407.499 78.5042V80.3872H389.038V78.7182C389.683 78.3942 390.464 78.1272 391.379 77.9122C392.295 77.6982 393.396 77.5362 394.688 77.4262L395.227 48.0382L389.038 46.7992V44.9682H408.037Z" fill="#665A40"/>
<path d="M428.87 65.801H447.385V68.924H428.87V65.801ZM453.254 77.641C453.9 77.786 454.526 77.939 455.138 78.101C455.746 78.263 456.375 78.452 457.021 78.666V80.388H442.112V78.666L447.547 77.588L436.997 46.799H438.29L427.415 77.374C428.493 77.554 429.552 77.75 430.592 77.965C431.632 78.18 432.673 78.416 433.715 78.666V80.388H419.665V78.666L423.38 77.374L435.437 44.968H441.303L453.254 77.641Z" fill="#665A40"/>
<path d="M488.563 44.9682V58.6962H486.732L484.634 48.3632H474.945V77.3742L482.157 78.5042V80.3872H462.296V78.7182C463.514 78.3942 464.725 78.1102 465.928 77.8562C467.13 77.6062 468.324 77.4262 469.508 77.3212L470.045 48.3632H460.251L458.151 58.6962H456.267V44.9682H488.563Z" fill="#665A40"/>
<path d="M509.93 77.4789C512.118 77.4789 514.031 76.8609 515.662 75.6259C517.296 74.3869 518.577 72.6469 519.512 70.4049C520.444 68.1619 520.912 65.5339 520.912 62.5159C520.912 59.5769 520.461 57.0269 519.565 54.8719C518.667 52.7209 517.395 51.0609 515.743 49.8959C514.092 48.7309 512.118 48.1439 509.824 48.1439C508.317 48.1439 506.798 48.4159 505.274 48.9539C503.749 49.4929 502.359 50.3159 501.104 51.4289L503.04 49.1689C500.314 53.4749 498.951 58.0869 498.951 63.0019C498.951 65.9109 499.407 68.4469 500.323 70.6199C501.238 72.7879 502.521 74.4739 504.17 75.6789C505.822 76.8789 507.741 77.4789 509.93 77.4789ZM509.499 80.8739C506.343 80.8739 503.571 80.1459 501.183 78.6919C498.798 77.2379 496.941 75.1839 495.614 72.5289C494.284 69.8749 493.622 66.7509 493.622 63.1639C493.622 59.5019 494.338 56.2739 495.776 53.4749C497.21 50.6759 499.174 48.4769 501.669 46.8819C504.161 45.2839 507.004 44.4859 510.2 44.4859C513.393 44.4859 516.201 45.2219 518.623 46.6939C521.045 48.1659 522.929 50.2289 524.276 52.8829C525.62 55.5379 526.293 58.6259 526.293 62.1389C526.293 65.8709 525.595 69.1389 524.195 71.9379C522.795 74.7369 520.831 76.9269 518.301 78.5039C515.772 80.0809 512.837 80.8739 509.499 80.8739Z" fill="#665A40"/>
<path d="M550.839 44.9682C553.242 44.9682 555.287 45.3842 556.977 46.2072C558.662 47.0352 559.964 48.2092 560.877 49.7342C561.792 51.2582 562.25 53.0802 562.25 55.1962C562.25 57.4562 561.71 59.4492 560.635 61.1712C559.558 62.8922 558.051 64.2332 556.112 65.1832C554.176 66.1342 551.897 66.6072 549.276 66.6072H540.289V63.2692H552.669C554.176 62.2312 555.28 61.1012 555.979 59.8792C556.68 58.6612 557.028 57.2242 557.028 55.5722C557.028 53.2072 556.392 51.4112 555.119 50.1892C553.844 48.9712 552.005 48.3632 549.602 48.3632H542.926V77.4262L550.301 78.5042V80.3872H531.84V78.7182C532.485 78.3942 533.265 78.1272 534.18 77.9122C535.096 77.6982 536.198 77.5362 537.49 77.4262L538.029 48.0382L531.84 46.7992V44.9682H550.839Z" fill="#665A40"/>
<path d="M590.078 80.3876V78.8276C591.012 78.4696 591.935 78.1716 592.851 77.9386C593.766 77.7066 594.671 77.5356 595.569 77.4266L596.108 48.0386L590.078 46.7996V44.9686H606.603V46.6376C605.777 46.8906 604.889 47.1316 603.937 47.3646C602.987 47.6006 601.991 47.7886 600.95 47.9296V77.4266L606.603 78.5036V80.3876H590.078ZM575.706 60.6886H598.476V64.0796H575.706V60.6886ZM567.149 80.3876V78.7186C568.117 78.3946 569.068 78.1276 570.001 77.9126C570.934 77.6986 571.867 77.5356 572.8 77.4266L573.339 48.0386L567.149 46.7996V44.9686H583.726V46.6376C582.901 46.8906 582.023 47.1316 581.09 47.3646C580.157 47.6006 579.206 47.7886 578.236 47.9296V77.4266L583.726 78.5036V80.3876H567.149Z" fill="#665A40"/>
<path d="M643.257 80.3876V78.7186C644.228 78.3946 645.187 78.1276 646.138 77.9126C647.088 77.6986 648.012 77.5356 648.91 77.4266L649.449 48.0386L643.257 46.7996V44.9686H659.999V46.6376C659.136 46.8906 658.24 47.1316 657.308 47.3646C656.372 47.6006 655.387 47.7886 654.346 47.9296V77.4266L659.999 78.5036V80.3876H643.257ZM611.07 80.3876V78.7186C612.505 78.0746 614.389 77.6406 616.721 77.4266L617.26 48.0386L611.07 46.7996V44.9686H629.371V46.6936C628.114 47.0136 626.886 47.2766 625.684 47.4736C624.481 47.6706 623.307 47.8416 622.159 47.9866V77.0496H631.2C633.031 76.5856 634.448 75.7746 635.453 74.6276C636.457 73.4796 636.961 72.0646 636.961 70.3736C636.961 68.0786 636.315 66.3486 635.023 65.1836C633.73 64.0176 631.829 63.4306 629.317 63.4306H619.737V60.0406H630.395C632.797 60.0406 634.889 60.4436 636.665 61.2546C638.442 62.0596 639.815 63.2076 640.782 64.6976C641.75 66.1866 642.235 67.9516 642.235 69.9976C642.235 73.1956 641.052 75.7226 638.682 77.5886C636.315 79.4546 633.104 80.3876 629.047 80.3876H611.07Z" fill="#665A40"/>
<path d="M694.338 68.4906H696.221V80.3876H665.541V78.7186C666.509 78.3946 667.46 78.1276 668.393 77.9126C669.326 77.6986 670.259 77.5356 671.192 77.4266L671.731 48.0386L665.541 46.7996V44.9686H695.682V55.7876H693.799L691.859 48.3626H674.474L676.628 46.1556V60.5276H686.21L687.879 55.9496H689.547V68.4906H687.879L686.155 63.8646H676.628V79.1476L674.474 76.9966H692.292L694.338 68.4906Z" fill="#665A40"/>
<path d="M292.579 144.776L279.254 121.315L287.829 114.507L304.699 143.432L297.967 137.9L308.03 140.807V144.776H292.579ZM286.341 122.942L278.827 121.24L286.127 107.066C287.355 104.654 288.691 102.693 290.134 101.182C291.575 99.6713 293.263 98.5573 295.201 97.8483C297.14 97.1383 299.502 96.7863 302.291 96.7863C302.761 96.7863 303.234 96.7973 303.707 96.8213C304.18 96.8443 304.653 96.8843 305.126 96.9303V108.693L293.926 106.922L298.108 103.807C297.304 104.418 296.487 105.283 295.663 106.391C294.835 107.505 293.995 108.791 293.144 110.256L286.341 122.942ZM269.824 117.553H285.631V123.933H269.824V117.553ZM257.064 144.776V141.303C258.247 140.784 259.322 140.369 260.292 140.063C261.258 139.757 262.31 139.486 263.444 139.25L264.224 103.097L257.137 101.182V97.3523H280.387V100.824C279.346 101.297 278.353 101.701 277.41 102.03C276.465 102.364 275.449 102.647 274.361 102.883V139.388L280.456 140.876V144.776H257.064ZM268.336 123.934H252.527V117.554H268.336V123.934ZM251.82 123.016L244.944 110.256C244.094 108.791 243.242 107.516 242.391 106.425C241.541 105.341 240.736 104.464 239.98 103.807L244.234 106.922L233.035 108.693V96.9303C233.554 96.8843 234.05 96.8443 234.523 96.8213C234.996 96.7973 235.446 96.7863 235.87 96.7863C238.705 96.7863 241.091 97.1553 243.029 97.8823C244.968 98.6213 246.645 99.7283 248.062 101.216C249.481 102.705 250.803 104.654 252.031 107.066L259.403 121.24L251.82 123.016ZM245.582 144.776H230.199V140.807L240.266 137.9L233.602 143.432L250.401 114.652L258.907 121.315L245.582 144.776Z" fill="#665A40"/>
<path d="M340.782 144.776V141.234C341.821 140.807 342.859 140.426 343.9 140.097C344.938 139.769 345.957 139.486 346.949 139.25L347.727 103.097L340.71 101.182V97.3523H364.529V100.824C363.537 101.251 362.472 101.643 361.339 101.995C360.206 102.353 359.046 102.647 357.866 102.883V139.388L364.529 140.876V144.776H340.782ZM322.634 143.357V134.075L352.689 99.2673V108.624L322.634 143.357ZM310.228 144.776V141.303C311.365 140.83 312.487 140.426 313.597 140.097C314.708 139.769 315.83 139.486 316.964 139.25L317.814 103.097L310.228 101.182V97.3523H334.33V100.824C333.384 101.251 332.345 101.643 331.212 101.995C330.079 102.353 328.942 102.647 327.808 102.883L327.881 139.388L334.119 140.876V144.776H310.228Z" fill="#665A40"/>
<path d="M387.635 142.861L383.098 138.396H399.048C400.842 137.831 402.201 136.943 403.124 135.737C404.044 134.531 404.506 133.077 404.506 131.382C404.506 129.109 403.75 127.338 402.239 126.063C400.724 124.788 398.645 124.148 395.999 124.148H386.715V117.767H397.064C400.796 115.973 402.662 113.516 402.662 110.395C402.662 108.319 401.99 106.697 400.644 105.544C399.296 104.384 397.393 103.807 394.936 103.807H383.098L387.635 99.2667V142.861ZM403.372 120.248C407.295 121.004 410.283 122.377 412.339 124.361C414.393 126.345 415.423 128.826 415.423 131.802C415.423 135.87 413.793 139.048 410.531 141.339C407.272 143.629 402.686 144.777 396.779 144.777H369.986V141.304C370.741 140.877 371.65 140.513 372.714 140.202C373.776 139.896 375.088 139.579 376.649 139.25L377.499 103.098L369.986 101.182V97.3517H397.56C402.568 97.3517 406.49 98.3437 409.325 100.329C412.16 102.313 413.579 105.036 413.579 108.486C413.579 111.226 412.668 113.62 410.851 115.679C409.031 117.733 406.536 119.256 403.372 120.248Z" fill="#665A40"/>
<path d="M444.697 138.961C447.105 138.961 449.184 138.269 450.935 136.873C452.683 135.477 454.019 133.435 454.939 130.741C455.862 128.046 456.32 124.787 456.32 120.957C456.32 117.225 455.862 114.069 454.939 111.496C454.019 108.918 452.657 106.956 450.863 105.612C449.066 104.262 446.869 103.593 444.269 103.593C442.475 103.593 440.667 103.934 438.847 104.62C437.027 105.306 435.291 106.379 433.638 107.845L437.607 103.166C434.44 108.837 432.859 114.934 432.859 121.453C432.859 125.139 433.33 128.294 434.275 130.919C435.221 133.539 436.58 135.54 438.351 136.907C440.125 138.28 442.239 138.961 444.697 138.961ZM443.918 145.624C439.426 145.624 435.515 144.661 432.184 142.722C428.853 140.784 426.301 138.032 424.529 134.461C422.759 130.897 421.87 126.628 421.87 121.667C421.87 116.659 422.862 112.263 424.849 108.485C426.834 104.701 429.562 101.77 433.035 99.6933C436.508 97.6113 440.488 96.5733 444.979 96.5733C449.562 96.5733 453.531 97.5423 456.888 99.4803C460.243 101.419 462.843 104.147 464.685 107.666C466.528 111.19 467.451 115.356 467.451 120.178C467.451 125.376 466.494 129.881 464.579 133.683C462.666 137.484 459.949 140.426 456.427 142.509C452.905 144.586 448.738 145.624 443.918 145.624Z" fill="#665A40"/>
<path d="M517.425 97.352V116.279H513.312L510.053 103.807H499.845V139.25L508.988 140.876V144.776H479.712V141.304C481.224 140.831 482.737 140.392 484.249 139.994C485.761 139.59 487.298 139.273 488.859 139.037L489.637 103.807H479.288L476.026 116.279H471.915V97.352H517.425Z" fill="#665A40"/>
<path d="M552.09 144.776V141.303C553.128 140.83 554.169 140.426 555.208 140.097C556.249 139.769 557.311 139.486 558.398 139.25L559.18 103.097L552.09 101.182V97.3523H576.049V100.824C575.008 101.251 573.933 101.643 572.825 101.995C571.712 102.353 570.543 102.647 569.315 102.883V139.388L576.049 140.876V144.776H552.09ZM534.227 117.842H564.141V124.291H534.227V117.842ZM521.68 144.776V141.303C522.814 140.83 523.936 140.426 525.046 140.097C526.156 139.769 527.28 139.486 528.414 139.25L529.266 103.097L521.68 101.182V97.3523H545.71V100.824C544.764 101.251 543.748 101.643 542.664 101.995C541.573 102.353 540.488 102.647 539.401 102.883V139.388L545.71 140.876V144.776H521.68Z" fill="#665A40"/>
<path d="M625.101 144.776V141.303C626.237 140.83 627.359 140.426 628.47 140.097C629.58 139.769 630.679 139.486 631.766 139.25L632.545 103.097L625.101 101.182V97.3523H649.415V100.824C648.423 101.251 647.371 101.643 646.26 101.995C645.15 102.353 643.982 102.647 642.753 102.883V139.388L649.415 140.876V144.776H625.101ZM580.301 144.776V141.303C582.144 140.357 584.388 139.671 587.036 139.25L587.887 103.097L580.301 101.182V97.3523H607.028V101.038C605.513 101.464 604.001 101.845 602.491 102.174C600.976 102.503 599.488 102.786 598.023 103.022V138.396H607.875C609.768 137.83 611.196 136.907 612.164 135.632C613.133 134.358 613.619 132.823 613.619 131.024C613.619 128.566 612.946 126.679 611.599 125.353C610.252 124.032 608.28 123.368 605.68 123.368H593.061V116.988H607.806C611.209 116.988 614.161 117.53 616.666 118.621C619.17 119.705 621.109 121.269 622.479 123.299C623.849 125.33 624.536 127.695 624.536 130.389C624.536 134.779 622.869 138.28 619.537 140.876C616.205 143.478 611.68 144.776 605.963 144.776H580.301Z" fill="#665A40"/>
<path d="M694.075 128.116H698.184V144.776H654.874V141.304C656.007 140.83 657.129 140.427 658.239 140.097C659.349 139.769 660.474 139.486 661.608 139.25L662.459 103.097L654.874 101.182V97.3521H697.548V112.667H693.365L690.458 103.807H668.057L672.595 99.2671V117.415H682.448L684.787 111.814H688.473V129.679H684.787L682.306 123.865H672.595V142.792L668.057 138.326H691.026L694.075 128.116Z" fill="#665A40"/>
<path d="M238.641 186.436C236.785 186.436 235.327 185.74 234.266 184.345C233.204 182.953 232.674 181.011 232.674 178.519C232.674 176.848 232.901 175.271 233.35 173.786C233.802 172.3 234.425 170.996 235.22 169.869C236.016 168.742 236.93 167.852 237.965 167.202C238.999 166.554 240.1 166.227 241.267 166.227C242.327 166.227 243.301 166.499 244.19 167.043C245.078 167.587 245.748 168.338 246.199 169.29L246.08 170.287C245.046 169.649 244.044 169.173 243.077 168.853C242.108 168.535 241.093 168.325 240.034 168.218L241.346 167.978C240.258 168.642 239.31 169.542 238.502 170.685C237.693 171.824 237.057 173.103 236.592 174.52C236.127 175.941 235.876 177.418 235.836 178.956C235.797 180.496 236.001 181.995 236.453 183.452L235.738 182.655C236.427 183.08 237.117 183.426 237.806 183.691C238.495 183.957 239.198 184.154 239.913 184.287L238.96 184.484C240.312 184.063 241.479 183.154 242.459 181.762C243.44 180.37 244.215 178.573 244.787 176.372C245.357 174.171 245.655 171.652 245.682 168.813C245.734 166.505 245.588 164.605 245.245 163.106C244.899 161.608 244.342 160.494 243.573 159.763C242.804 159.034 241.796 158.672 240.551 158.672C240.179 158.672 239.714 158.71 239.158 158.789C238.601 158.869 238.057 158.976 237.528 159.109L237.249 158.115C238.761 156.894 240.416 156.283 242.221 156.283C244.581 156.283 246.359 157.364 247.551 159.526C248.745 161.689 249.288 164.835 249.183 168.972C249.076 172.394 248.566 175.417 247.65 178.042C246.736 180.668 245.502 182.723 243.952 184.206C242.4 185.692 240.63 186.436 238.641 186.436Z" fill="#665A40"/>
<path d="M265.729 185.044L265.014 183.451C265.808 183.425 266.571 183.351 267.301 183.231C268.029 183.114 268.752 182.946 269.468 182.736C269.282 183.451 268.978 184.083 268.553 184.623C268.129 185.167 267.646 185.594 267.102 185.898C266.558 186.203 265.982 186.355 265.372 186.355C264.708 186.355 264.125 186.141 263.622 185.717C263.117 185.293 262.759 184.697 262.547 183.927L266.127 167.858L269.508 166.586L265.729 185.044ZM249.262 186.235L250.018 182.377L254.393 182.895L252.444 184.167C253.583 182.946 254.637 181.205 255.607 178.936C256.573 176.669 257.562 173.627 258.569 169.807L259.406 166.942L260.399 169.053L255.746 167.819L255.984 166.586H269.508L267.282 168.774H261.115C260.162 172.222 259.258 175.093 258.411 177.385C257.562 179.68 256.7 181.483 255.826 182.794C254.95 184.108 253.975 185.021 252.901 185.539C251.828 186.057 250.614 186.287 249.262 186.235Z" fill="#665A40"/>
<path d="M285.379 186.355C284.69 186.355 284.094 186.141 283.589 185.717C283.085 185.293 282.728 184.697 282.516 183.927L284.186 176.967L286.333 166.586H289.477L285.618 185.044L284.941 183.451C285.684 183.425 286.426 183.351 287.169 183.231C287.912 183.114 288.654 182.946 289.398 182.736C289.212 183.451 288.92 184.083 288.522 184.623C288.124 185.167 287.647 185.594 287.09 185.898C286.533 186.203 285.963 186.355 285.379 186.355ZM285.299 177.404C283.815 177.935 282.449 178.213 281.203 178.239C279.957 178.269 278.875 178.074 277.961 177.663C277.047 177.252 276.336 176.624 275.833 175.773C275.329 174.925 275.077 173.879 275.077 172.633C275.077 171.493 275.375 170.445 275.971 169.49C276.568 168.535 277.385 167.774 278.419 167.201C279.453 166.631 280.606 166.347 281.88 166.347C282.754 166.347 283.595 166.524 284.404 166.884C285.214 167.243 285.908 167.764 286.493 168.454L286.413 169.409C285.672 169.147 284.935 168.926 284.204 168.755C283.476 168.58 282.739 168.441 281.997 168.337C281.255 168.23 280.46 168.175 279.612 168.175L281.918 167.263C280.194 168.324 279.081 169.707 278.578 171.419C278.072 173.128 278.233 174.967 279.055 176.928L277.98 175.456C278.908 175.96 279.963 176.252 281.143 176.33C282.323 176.411 283.575 176.265 284.902 175.893L285.299 177.404ZM271.378 186.316L272.094 182.418L276.747 183.092L274.282 184.008C274.812 183.558 275.309 183.06 275.773 182.516C276.237 181.972 276.746 181.302 277.303 180.509C277.861 179.712 278.536 178.706 279.333 177.485H281.522C280.487 179.34 279.566 180.858 278.757 182.04C277.948 183.218 277.171 184.134 276.43 184.785C275.687 185.432 274.912 185.873 274.103 186.096C273.293 186.322 272.385 186.394 271.378 186.316Z" fill="#665A40"/>
<path d="M314.496 186.355C313.833 186.355 313.242 186.141 312.725 185.717C312.208 185.293 311.844 184.697 311.632 183.927L315.569 166.586H318.672L314.813 185.083L314.137 183.451C314.933 183.425 315.695 183.351 316.426 183.231C317.154 183.114 317.862 182.946 318.553 182.736C318.368 183.477 318.061 184.115 317.638 184.646C317.214 185.176 316.724 185.594 316.167 185.898C315.609 186.203 315.053 186.355 314.496 186.355ZM303.955 177.048L304.352 174.98H315.171L314.774 177.048H303.955ZM300.415 186.077L304.433 167.7L304.948 169.37C304.021 169.37 303.225 169.402 302.562 169.47C301.899 169.535 301.235 169.648 300.573 169.807C300.732 169.091 301.017 168.477 301.428 167.959C301.839 167.44 302.31 167.043 302.841 166.764C303.37 166.486 303.927 166.347 304.512 166.347C305.122 166.347 305.679 166.534 306.182 166.903C306.685 167.275 307.097 167.806 307.415 168.496L303.875 186.077H300.415Z" fill="#665A40"/>
<path d="M336.413 185.044L335.736 183.451C336.452 183.399 337.169 183.312 337.884 183.192C338.6 183.072 339.355 182.92 340.151 182.736C339.966 183.477 339.659 184.115 339.237 184.646C338.811 185.176 338.327 185.594 337.785 185.898C337.241 186.203 336.691 186.355 336.135 186.355C335.471 186.355 334.887 186.141 334.383 185.717C333.88 185.293 333.494 184.697 333.23 183.927L335.219 176.848L334.86 176.728L337.128 166.586H340.271L336.413 185.044ZM328.576 186.235C326.72 186.449 325.28 185.97 324.261 184.804C323.239 183.636 322.729 181.82 322.729 179.353C322.729 177.605 322.975 175.948 323.465 174.381C323.955 172.817 324.638 171.425 325.514 170.205C326.39 168.985 327.39 168.023 328.516 167.321C329.644 166.618 330.83 166.269 332.077 166.269C333.164 166.269 334.126 166.534 334.961 167.062C335.796 167.593 336.438 168.35 336.891 169.331L336.85 170.325C335.126 169.13 332.925 168.415 330.246 168.175L331.64 167.897C330.578 168.376 329.63 169.16 328.794 170.244C327.959 171.332 327.297 172.597 326.807 174.044C326.314 175.488 326.036 177.006 325.97 178.599C325.903 180.188 326.07 181.755 326.469 183.293L325.672 182.419C326.255 182.788 326.826 183.114 327.383 183.393C327.939 183.671 328.55 183.862 329.212 183.969L328.298 184.128C329.729 183.092 331.096 181.542 332.393 179.473C333.693 177.404 334.966 174.792 336.214 171.636L336.929 172.273C335.709 175.563 334.43 178.34 333.092 180.606C331.751 182.875 330.246 184.749 328.576 186.235Z" fill="#665A40"/>
<path d="M348.384 186.077L346.237 167.661L347.231 169.49C346.196 169.516 345.442 169.555 344.964 169.61C344.487 169.661 344.048 169.729 343.652 169.807C343.731 169.118 343.93 168.515 344.247 167.998C344.567 167.48 344.969 167.081 345.461 166.803C345.951 166.525 346.461 166.386 346.992 166.386C347.495 166.386 347.973 166.535 348.425 166.826C348.875 167.117 349.233 167.541 349.498 168.098L350.93 183.293H352.481L350.652 185.996L348.384 186.077ZM338.68 193.593L339.196 191.01L344.605 191.366C345.852 190.227 347.098 188.861 348.346 187.271C349.592 185.679 350.798 183.914 351.965 181.979C353.131 180.043 354.213 178.016 355.206 175.893C356.2 173.773 357.082 171.623 357.851 169.451L357.931 172.235L356.221 166.865C356.83 166.651 357.468 166.548 358.129 166.548C358.847 166.548 359.389 166.706 359.761 167.023C360.132 167.341 360.318 167.846 360.318 168.535C360.318 169.147 360.118 170.047 359.721 171.241C359.217 172.805 358.54 174.462 357.693 176.213C356.843 177.961 355.896 179.706 354.849 181.441C353.8 183.18 352.727 184.805 351.626 186.316C350.526 187.828 349.451 189.152 348.404 190.295C347.357 191.434 346.395 192.269 345.521 192.8C344.222 193.619 342.843 194.034 341.384 194.034C340.509 194.034 339.607 193.885 338.68 193.593Z" fill="#665A40"/>
<path d="M374.837 186.355C374.199 186.355 373.63 186.141 373.126 185.717C372.621 185.293 372.236 184.697 371.971 183.927L374.677 173.387L374.359 173.267L375.871 166.586H378.973L375.115 185.044L374.478 183.451C375.246 183.425 375.989 183.351 376.706 183.231C377.422 183.114 378.15 182.946 378.893 182.736C378.707 183.477 378.402 184.115 377.979 184.646C377.555 185.176 377.064 185.594 376.507 185.898C375.95 186.203 375.394 186.355 374.837 186.355ZM368.512 180.23C367.37 180.415 366.364 180.376 365.488 180.11C364.614 179.845 363.976 179.408 363.579 178.796C363.181 178.188 363.088 177.446 363.302 176.569L365.688 167.7L367.239 169.172C366.257 169.25 365.33 169.351 364.454 169.47C363.58 169.59 362.743 169.742 361.948 169.927C362.16 169.186 362.465 168.548 362.863 168.017C363.261 167.486 363.724 167.078 364.255 166.784C364.786 166.492 365.316 166.347 365.846 166.347C366.456 166.347 367 166.554 367.478 166.965C367.955 167.376 368.313 167.991 368.552 168.813L366.402 177.126L366.006 176.491C366.906 177.126 367.928 177.618 369.068 177.961L368.312 178.042C369.771 177.035 371.108 175.783 372.329 174.284C373.549 172.785 374.664 171.095 375.672 169.211L376.229 170.244C375.194 172.341 374.054 174.235 372.808 175.935C371.561 177.631 370.129 179.062 368.512 180.23Z" fill="#665A40"/>
<path d="M397.468 186.355C396.805 186.355 396.214 186.141 395.697 185.717C395.18 185.293 394.816 184.697 394.604 183.927L398.541 166.586H401.644L397.785 185.083L397.109 183.451C397.905 183.425 398.667 183.351 399.398 183.231C400.126 183.114 400.835 182.946 401.525 182.736C401.34 183.477 401.033 184.115 400.61 184.646C400.186 185.176 399.696 185.594 399.139 185.898C398.581 186.203 398.025 186.355 397.468 186.355ZM386.927 177.048L387.324 174.98H398.143L397.746 177.048H386.927ZM383.387 186.077L387.405 167.7L387.92 169.37C386.993 169.37 386.197 169.402 385.534 169.47C384.871 169.535 384.207 169.648 383.545 169.807C383.704 169.091 383.989 168.477 384.4 167.959C384.811 167.44 385.282 167.043 385.813 166.764C386.342 166.486 386.899 166.347 387.484 166.347C388.094 166.347 388.651 166.534 389.154 166.903C389.657 167.275 390.069 167.806 390.387 168.496L386.847 186.077H383.387Z" fill="#665A40"/>
<path d="M426.028 185.044L425.272 183.451C426.066 183.425 426.836 183.357 427.578 183.254C428.321 183.147 429.051 182.975 429.766 182.736C429.581 183.477 429.276 184.115 428.852 184.646C428.426 185.176 427.936 185.594 427.38 185.898C426.822 186.203 426.253 186.355 425.67 186.355C425.032 186.355 424.463 186.141 423.96 185.717C423.454 185.293 423.071 184.697 422.805 183.927L426.544 166.586H429.726L426.028 185.044ZM412.184 186.436C410.434 186.436 409.055 185.957 408.048 185.002C407.041 184.047 406.537 182.8 406.537 181.263C406.537 180.839 406.576 180.396 406.655 179.933C406.735 179.466 406.829 179.023 406.934 178.599L410.077 167.7L410.633 169.331C409.838 169.331 409.088 169.37 408.385 169.451C407.683 169.528 406.974 169.635 406.258 169.768C406.418 169.105 406.689 168.515 407.073 167.998C407.459 167.48 407.915 167.078 408.446 166.784C408.976 166.492 409.533 166.347 410.116 166.347C411.495 166.347 412.49 167.049 413.1 168.454L410.197 177.165L410.475 177.285C410.261 177.897 410.071 178.606 409.897 179.415C409.725 180.224 409.64 181.023 409.64 181.82C409.64 182.218 409.673 182.629 409.739 183.053C409.805 183.477 409.919 183.901 410.077 184.325L409.163 183.211C410.01 183.584 410.884 183.875 411.788 184.089C412.688 184.299 413.617 184.419 414.572 184.445L412.901 184.723C414.518 183.875 415.786 182.749 416.7 181.344C417.615 179.939 418.073 178.44 418.073 176.848C418.073 176.504 418.039 176.158 417.972 175.815C417.906 175.469 417.78 175.084 417.595 174.659L418.669 176.012C417.953 175.695 417.237 175.398 416.52 175.119C415.805 174.84 415.088 174.633 414.373 174.501L415.805 174.303C415.248 174.595 414.591 175.032 413.836 175.614C413.08 176.2 412.317 176.86 411.549 177.605C410.779 178.346 410.103 179.143 409.52 179.991L408.764 179.395C409.506 178.334 410.269 177.359 411.051 176.469C411.833 175.582 412.583 174.798 413.299 174.122C414.015 173.449 414.638 172.911 415.169 172.513C416.998 172.38 418.45 172.759 419.524 173.646C420.597 174.536 421.134 175.906 421.134 177.764C421.134 179.062 420.882 180.25 420.379 181.324C419.876 182.396 419.193 183.312 418.33 184.066C417.468 184.824 416.507 185.406 415.447 185.817C414.385 186.229 413.299 186.436 412.184 186.436Z" fill="#665A40"/>
<path d="M442.137 177.165C443.436 174.938 444.531 173.116 445.419 171.698C446.308 170.28 447.076 169.179 447.726 168.396C448.376 167.613 448.991 167.069 449.575 166.765C450.158 166.46 450.768 166.308 451.406 166.308C451.511 166.308 451.631 166.314 451.764 166.328C451.895 166.34 452.042 166.36 452.2 166.386L451.087 171.319L448.342 170.565C447.944 170.963 447.593 171.338 447.288 171.698C446.983 172.054 446.665 172.475 446.333 172.951C446.001 173.426 445.618 173.999 445.179 174.66C444.742 175.323 444.218 176.159 443.61 177.165H442.137ZM444.087 175.297L447.586 184.763L446.393 183.212C446.922 183.186 447.493 183.154 448.104 183.115C448.713 183.073 449.337 183.001 449.974 182.895C449.92 183.61 449.714 184.228 449.357 184.743C448.999 185.261 448.554 185.659 448.025 185.937C447.493 186.216 446.937 186.355 446.353 186.355C445.903 186.355 445.464 186.255 445.04 186.058C444.616 185.857 444.245 185.559 443.927 185.161L441.342 177.683H440.744L441.899 175.297H444.087ZM440.824 176.887L437.642 167.978L438.835 169.529C438.278 169.555 437.696 169.603 437.085 169.668C436.475 169.736 435.865 169.808 435.256 169.888C435.335 169.173 435.554 168.555 435.911 168.037C436.27 167.522 436.721 167.117 437.265 166.826C437.807 166.535 438.359 166.386 438.915 166.386C439.393 166.386 439.836 166.486 440.247 166.687C440.658 166.884 441.01 167.182 441.301 167.58L443.569 174.423H444.205L443.012 176.887H440.824ZM442.655 175.019C441.327 177.327 440.207 179.214 439.293 180.687C438.378 182.16 437.582 183.306 436.908 184.128C436.231 184.95 435.594 185.526 434.997 185.857C434.4 186.19 433.771 186.355 433.109 186.355C433.001 186.355 432.882 186.349 432.749 186.336C432.616 186.323 432.471 186.316 432.312 186.316L433.306 181.383L436.13 182.137C436.502 181.743 436.847 181.37 437.164 181.024C437.484 180.681 437.815 180.269 438.159 179.79C438.503 179.314 438.915 178.7 439.393 177.942C439.869 177.188 440.479 176.213 441.222 175.019H442.655Z" fill="#665A40"/>
<path d="M472.248 183.927L474.237 176.411L473.88 176.291L476.066 166.586H479.21L475.352 185.044L474.675 183.451C475.443 183.426 476.193 183.351 476.923 183.231C477.651 183.115 478.375 182.947 479.09 182.736C478.904 183.477 478.606 184.115 478.195 184.646C477.784 185.177 477.3 185.594 476.743 185.899C476.186 186.203 475.63 186.355 475.073 186.355C474.409 186.355 473.833 186.141 473.343 185.718C472.851 185.293 472.486 184.698 472.248 183.927ZM468.152 168.813L464.691 182.655L464.452 181.781C464.93 182.257 465.433 182.691 465.964 183.073C466.495 183.458 466.998 183.73 467.476 183.888L466.641 184.008C468.124 182.975 469.61 181.357 471.095 179.156C472.58 176.954 473.973 174.278 475.271 171.121L475.788 172.513C475.073 174.184 474.35 175.728 473.621 177.146C472.891 178.567 472.154 179.852 471.413 181.004C470.671 182.16 469.928 183.16 469.186 184.008C468.443 184.856 467.714 185.533 466.998 186.038C466.495 186.171 466.043 186.235 465.644 186.235C464.452 186.235 463.458 185.892 462.662 185.203C461.867 184.513 461.469 183.623 461.469 182.535C461.469 182.137 461.535 181.742 461.668 181.344L465.248 167.7L466.799 169.173C465.844 169.25 464.923 169.351 464.034 169.47C463.145 169.59 462.305 169.742 461.508 169.927C461.72 169.186 462.025 168.548 462.424 168.017C462.82 167.486 463.278 167.078 463.797 166.784C464.312 166.492 464.851 166.347 465.407 166.347C466.018 166.347 466.565 166.554 467.058 166.965C467.548 167.376 467.912 167.991 468.152 168.813Z" fill="#665A40"/>
<path d="M494.841 173.468L494.085 167.301L497.427 167.341L496.274 173.468H494.841ZM489.391 186.436C487.404 186.436 485.832 185.685 484.678 184.186C483.524 182.691 482.947 180.642 482.947 178.042C482.947 175.789 483.372 173.773 484.222 171.995C485.07 170.218 486.222 168.813 487.682 167.781C489.141 166.745 490.784 166.227 492.613 166.227C493.515 166.227 494.391 166.327 495.239 166.525C496.087 166.725 496.818 166.997 497.427 167.341L496.194 169.927C494.31 169.105 492.177 168.629 489.789 168.496L491.62 167.859C490.506 168.496 489.552 169.428 488.755 170.662C487.96 171.895 487.344 173.274 486.905 174.799C486.468 176.326 486.25 177.828 486.25 179.314C486.25 180.03 486.322 180.732 486.468 181.422C486.613 182.111 486.847 182.749 487.164 183.332L486.487 182.179C487.044 182.629 487.642 182.969 488.278 183.193C488.915 183.419 489.537 183.532 490.147 183.532C491.102 183.532 492.017 183.273 492.892 182.756C493.768 182.238 494.588 181.451 495.359 180.389L495.995 180.706C495.597 182.432 494.787 183.817 493.569 184.863C492.349 185.911 490.956 186.436 489.391 186.436Z" fill="#665A40"/>
<path d="M511.19 173.468L510.434 167.301L513.777 167.341L512.623 173.468H511.19ZM505.741 186.436C503.753 186.436 502.181 185.685 501.027 184.186C499.874 182.691 499.297 180.642 499.297 178.042C499.297 175.789 499.721 173.773 500.571 171.995C501.419 170.218 502.572 168.813 504.031 167.781C505.49 166.745 507.134 166.227 508.963 166.227C509.865 166.227 510.74 166.327 511.588 166.525C512.436 166.725 513.167 166.997 513.777 167.341L512.544 169.927C510.659 169.105 508.526 168.629 506.138 168.496L507.969 167.859C506.856 168.496 505.901 169.428 505.104 170.662C504.31 171.895 503.693 173.274 503.254 174.799C502.817 176.326 502.599 177.828 502.599 179.314C502.599 180.03 502.671 180.732 502.817 181.422C502.963 182.111 503.196 182.749 503.513 183.332L502.836 182.179C503.393 182.629 503.991 182.969 504.627 183.193C505.264 183.419 505.886 183.532 506.497 183.532C507.452 183.532 508.366 183.273 509.242 182.756C510.117 182.238 510.938 181.451 511.708 180.389L512.344 180.706C511.946 182.432 511.136 183.817 509.918 184.863C508.698 185.911 507.305 186.436 505.741 186.436Z" fill="#665A40"/>
<path d="M529.607 185.044L528.892 183.451C529.687 183.425 530.449 183.351 531.179 183.231C531.908 183.114 532.63 182.946 533.346 182.736C533.16 183.451 532.856 184.083 532.432 184.623C532.007 185.167 531.524 185.594 530.98 185.898C530.436 186.203 529.86 186.355 529.25 186.355C528.586 186.355 528.003 186.141 527.501 185.717C526.995 185.293 526.637 184.697 526.425 183.927L530.005 167.858L533.386 166.586L529.607 185.044ZM513.14 186.235L513.896 182.377L518.271 182.895L516.323 184.167C517.461 182.946 518.515 181.205 519.485 178.936C520.452 176.669 521.44 173.627 522.447 169.807L523.284 166.942L524.278 169.053L519.625 167.819L519.862 166.586H533.386L531.16 168.774H524.993C524.04 172.222 523.136 175.093 522.289 177.385C521.44 179.68 520.578 181.483 519.704 182.794C518.828 184.108 517.854 185.021 516.779 185.539C515.706 186.057 514.492 186.287 513.14 186.235Z" fill="#665A40"/>
<path d="M544.007 186.436C542.019 186.436 540.428 185.698 539.234 184.228C538.04 182.756 537.443 180.774 537.443 178.282C537.443 176.664 537.694 175.126 538.198 173.666C538.701 172.209 539.394 170.921 540.268 169.808C541.144 168.694 542.157 167.82 543.31 167.182C544.464 166.548 545.704 166.227 547.029 166.227C548.595 166.227 549.879 166.661 550.888 167.522C551.896 168.383 552.401 169.503 552.401 170.882C552.401 171.915 552.094 172.85 551.486 173.686C550.875 174.52 550.006 175.239 548.88 175.835C547.752 176.431 546.413 176.916 544.862 177.285C543.311 177.657 541.593 177.923 539.711 178.082V176.45C543.026 176.052 545.432 175.417 546.93 174.54C548.427 173.666 549.177 172.458 549.177 170.921C549.177 170.128 549.006 169.371 548.661 168.655L549.734 169.649C548.99 169.306 548.222 169.04 547.427 168.853C546.631 168.668 545.81 168.561 544.961 168.535L546.115 168.257C544.975 168.839 543.993 169.655 543.171 170.704C542.349 171.749 541.719 172.963 541.281 174.342C540.845 175.722 540.625 177.233 540.625 178.877C540.625 179.674 540.71 180.467 540.883 181.263C541.057 182.06 541.315 182.814 541.659 183.533L540.943 182.257C541.526 182.71 542.144 183.034 542.794 183.231C543.444 183.432 544.139 183.533 544.882 183.533C545.916 183.533 546.949 183.287 547.984 182.794C549.018 182.306 550 181.555 550.929 180.548L551.486 181.066C550.795 182.736 549.787 184.047 548.461 185.002C547.134 185.957 545.651 186.436 544.007 186.436Z" fill="#665A40"/>
<path d="M560.753 186.436C558.897 186.436 557.439 185.74 556.379 184.345C555.316 182.953 554.786 181.011 554.786 178.519C554.786 176.848 555.013 175.271 555.462 173.786C555.914 172.3 556.537 170.996 557.332 169.869C558.128 168.742 559.043 167.852 560.077 167.202C561.111 166.554 562.212 166.227 563.379 166.227C564.439 166.227 565.413 166.499 566.302 167.043C567.19 167.587 567.86 168.338 568.311 169.29L568.192 170.287C567.158 169.649 566.156 169.173 565.189 168.853C564.221 168.535 563.205 168.325 562.146 168.218L563.458 167.978C562.37 168.642 561.422 169.542 560.614 170.685C559.805 171.824 559.169 173.103 558.704 174.52C558.24 175.941 557.989 177.418 557.948 178.956C557.909 180.496 558.113 181.995 558.565 183.452L557.85 182.655C558.539 183.08 559.229 183.426 559.918 183.691C560.607 183.957 561.311 184.154 562.025 184.287L561.072 184.484C562.424 184.063 563.591 183.154 564.571 181.762C565.553 180.37 566.327 178.573 566.899 176.372C567.469 174.171 567.767 171.652 567.794 168.813C567.846 166.505 567.7 164.605 567.357 163.106C567.011 161.608 566.454 160.494 565.685 159.763C564.916 159.034 563.908 158.672 562.663 158.672C562.291 158.672 561.826 158.71 561.27 158.789C560.713 158.869 560.169 158.976 559.64 159.109L559.361 158.115C560.873 156.894 562.529 156.283 564.334 156.283C566.693 156.283 568.471 157.364 569.663 159.526C570.857 161.689 571.4 164.835 571.295 168.972C571.189 172.394 570.678 175.417 569.762 178.042C568.848 180.668 567.614 182.723 566.064 184.206C564.512 185.692 562.742 186.436 560.753 186.436Z" fill="#665A40"/>
<path d="M582.669 184.248C583.624 183.798 584.479 183.04 585.234 181.979C585.99 180.92 586.589 179.713 587.025 178.36C587.464 177.007 587.708 175.589 587.762 174.103C587.816 172.621 587.643 171.215 587.245 169.888C586.608 169.516 585.972 169.212 585.336 168.972C584.699 168.733 584.035 168.574 583.346 168.497C582.364 168.998 581.496 169.781 580.74 170.843C579.984 171.902 579.39 173.122 578.95 174.501C578.514 175.88 578.274 177.291 578.234 178.738C578.193 180.182 578.374 181.542 578.773 182.814C579.329 183.186 579.94 183.491 580.602 183.73C581.265 183.97 581.953 184.141 582.669 184.248ZM581.437 186.436C579.422 186.436 577.837 185.718 576.685 184.287C575.53 182.856 574.953 180.878 574.953 178.36C574.953 176.664 575.199 175.084 575.69 173.627C576.18 172.167 576.861 170.882 577.737 169.769C578.613 168.655 579.634 167.788 580.801 167.163C581.968 166.541 583.227 166.227 584.58 166.227C586.595 166.227 588.18 166.939 589.333 168.357C590.486 169.775 591.064 171.756 591.064 174.304C591.064 176 590.811 177.58 590.307 179.036C589.802 180.496 589.119 181.781 588.258 182.895C587.397 184.008 586.383 184.876 585.216 185.5C584.049 186.122 582.79 186.436 581.437 186.436Z" fill="#665A40"/>
<path d="M600.571 186.436C598.582 186.436 596.984 185.76 595.777 184.407C594.571 183.054 593.967 181.131 593.967 178.638C593.967 176.942 594.239 175.349 594.783 173.867C595.325 172.381 596.068 171.066 597.009 169.927C597.95 168.788 599.025 167.885 600.232 167.221C601.438 166.561 602.704 166.227 604.031 166.227C605.569 166.227 606.815 166.638 607.77 167.46C608.725 168.283 609.202 169.344 609.202 170.643C609.202 171.785 608.777 172.772 607.928 173.608C607.081 174.443 605.755 175.152 603.952 175.734L603.513 176.33C602.214 176.65 600.941 176.922 599.695 177.146C598.449 177.373 597.295 177.524 596.235 177.605V175.974C599.575 175.657 602.042 175.094 603.633 174.284C605.224 173.475 606.02 172.381 606.02 171.002C606.02 170.629 605.973 170.218 605.882 169.769C605.787 169.318 605.674 168.92 605.543 168.574L606.496 169.529C605.781 169.238 605.078 169.011 604.388 168.853C603.699 168.694 602.918 168.59 602.042 168.535L602.997 168.06C601.804 168.775 600.77 169.704 599.894 170.843C599.018 171.983 598.342 173.274 597.865 174.721C597.388 176.165 597.149 177.683 597.149 179.276C597.149 180.92 597.494 182.484 598.183 183.97L597.348 182.775C598.038 183.254 598.781 183.623 599.575 183.889C600.372 184.154 601.233 184.326 602.162 184.407L601.087 184.763C601.935 184.5 602.672 184.067 603.295 183.471C603.918 182.875 604.402 182.192 604.747 181.422C605.092 180.655 605.264 179.858 605.264 179.036C605.264 178.269 605.065 177.46 604.668 176.608L605.702 177.605C605.25 177.314 604.72 177.036 604.11 176.77C603.501 176.505 602.837 176.278 602.121 176.094L603.753 175.178C605.291 175.391 606.429 175.867 607.173 176.608C607.916 177.353 608.286 178.334 608.286 179.554C608.286 180.826 607.928 181.985 607.214 183.034C606.496 184.083 605.562 184.912 604.408 185.52C603.256 186.129 601.975 186.436 600.571 186.436Z" fill="#665A40"/>
<path d="M626.426 185.044L625.75 183.451C626.465 183.399 627.182 183.312 627.898 183.192C628.613 183.072 629.368 182.92 630.165 182.736C629.979 183.477 629.673 184.115 629.25 184.646C628.825 185.176 628.341 185.594 627.799 185.898C627.255 186.203 626.704 186.355 626.148 186.355C625.485 186.355 624.9 186.141 624.397 185.717C623.894 185.293 623.508 184.697 623.244 183.927L625.232 176.848L624.874 176.728L627.142 166.586H630.285L626.426 185.044ZM618.589 186.235C616.733 186.449 615.294 185.97 614.275 184.804C613.253 183.636 612.743 181.82 612.743 179.353C612.743 177.605 612.988 175.948 613.478 174.381C613.968 172.817 614.652 171.425 615.528 170.205C616.403 168.985 617.403 168.023 618.53 167.321C619.657 166.618 620.844 166.269 622.09 166.269C623.178 166.269 624.139 166.534 624.975 167.062C625.81 167.593 626.452 168.35 626.904 169.331L626.863 170.325C625.14 169.13 622.939 168.415 620.26 168.175L621.654 167.897C620.591 168.376 619.643 169.16 618.808 170.244C617.973 171.332 617.311 172.597 616.821 174.044C616.328 175.488 616.05 177.006 615.984 178.599C615.917 180.188 616.084 181.755 616.482 183.293L615.686 182.419C616.269 182.788 616.84 183.114 617.397 183.393C617.953 183.671 618.564 183.862 619.226 183.969L618.311 184.128C619.743 183.092 621.11 181.542 622.407 179.473C623.707 177.404 624.98 174.792 626.227 171.636L626.943 172.273C625.722 175.563 624.444 178.34 623.105 180.606C621.765 182.875 620.26 184.749 618.589 186.235Z" fill="#665A40"/>
<path d="M648.382 186.355C647.718 186.355 647.127 186.141 646.611 185.717C646.093 185.293 645.729 184.697 645.517 183.927L649.455 166.586H652.558L648.699 185.083L648.023 183.451C648.819 183.425 649.581 183.351 650.311 183.231C651.039 183.114 651.748 182.946 652.438 182.736C652.253 183.477 651.947 184.115 651.524 184.646C651.099 185.176 650.609 185.594 650.052 185.898C649.495 186.203 648.939 186.355 648.382 186.355ZM637.84 177.048L638.238 174.98H649.057L648.66 177.048H637.84ZM634.301 186.077L638.318 167.7L638.834 169.37C637.906 169.37 637.111 169.402 636.448 169.47C635.784 169.535 635.121 169.648 634.459 169.807C634.617 169.091 634.903 168.477 635.314 167.959C635.725 167.44 636.195 167.043 636.727 166.764C637.256 166.486 637.813 166.347 638.397 166.347C639.007 166.347 639.564 166.534 640.068 166.903C640.57 167.275 640.982 167.806 641.301 168.496L637.761 186.077H634.301Z" fill="#665A40"/>
<path d="M668.389 183.927L670.378 176.411L670.02 176.291L672.206 166.586H675.35L671.492 185.044L670.815 183.451C671.583 183.426 672.333 183.351 673.063 183.231C673.791 183.115 674.515 182.947 675.23 182.736C675.044 183.477 674.746 184.115 674.335 184.646C673.924 185.177 673.44 185.594 672.883 185.899C672.327 186.203 671.77 186.355 671.213 186.355C670.549 186.355 669.973 186.141 669.483 185.718C668.991 185.293 668.626 184.698 668.389 183.927ZM664.292 168.813L660.831 182.655L660.592 181.781C661.07 182.257 661.573 182.691 662.104 183.073C662.635 183.458 663.138 183.73 663.616 183.888L662.781 184.008C664.265 182.975 665.75 181.357 667.235 179.156C668.72 176.954 670.113 174.278 671.412 171.121L671.928 172.513C671.213 174.184 670.49 175.728 669.761 177.146C669.032 178.567 668.295 179.852 667.553 181.004C666.811 182.16 666.068 183.16 665.326 184.008C664.583 184.856 663.854 185.533 663.138 186.038C662.635 186.171 662.183 186.235 661.785 186.235C660.592 186.235 659.598 185.892 658.802 185.203C658.007 184.513 657.609 183.623 657.609 182.535C657.609 182.137 657.675 181.742 657.808 181.344L661.388 167.7L662.939 169.173C661.984 169.25 661.063 169.351 660.174 169.47C659.286 169.59 658.445 169.742 657.648 169.927C657.86 169.186 658.166 168.548 658.564 168.017C658.96 167.486 659.418 167.078 659.937 166.784C660.452 166.492 660.991 166.347 661.547 166.347C662.158 166.347 662.706 166.554 663.198 166.965C663.689 167.376 664.053 167.991 664.292 168.813Z" fill="#665A40"/>
<path d="M691.223 183.927L693.212 176.411L692.853 176.291L695.041 166.586H698.184L694.326 185.044L693.649 183.451C694.418 183.426 695.167 183.351 695.896 183.231C696.625 183.115 697.348 182.947 698.065 182.736C697.878 183.477 697.58 184.115 697.169 184.646C696.758 185.177 696.275 185.594 695.718 185.899C695.161 186.203 694.604 186.355 694.047 186.355C693.384 186.355 692.808 186.141 692.317 185.718C691.826 185.293 691.461 184.698 691.223 183.927ZM691.58 162.808C690.122 162.808 688.975 162.388 688.14 161.552C687.304 160.718 686.941 159.623 687.045 158.274L689.553 157.756C689.472 158.817 689.652 159.604 690.088 160.122C690.527 160.64 691.144 160.899 691.939 160.899C692.786 160.899 693.516 160.64 694.126 160.122C694.737 159.604 695.226 158.817 695.598 157.756L697.825 158.274C697.454 159.597 696.699 160.685 695.559 161.533C694.418 162.385 693.092 162.808 691.58 162.808ZM687.124 168.813L683.664 182.655L683.426 181.781C683.904 182.257 684.408 182.691 684.938 183.073C685.467 183.458 685.972 183.73 686.45 183.888L685.615 184.008C687.099 182.975 688.583 181.357 690.069 179.156C691.553 176.954 692.947 174.278 694.246 171.121L694.763 172.513C694.047 174.184 693.324 175.728 692.595 177.146C691.866 178.567 691.129 179.852 690.388 181.004C689.645 182.16 688.902 183.16 688.16 184.008C687.417 184.856 686.688 185.533 685.972 186.038C685.467 186.171 685.018 186.235 684.619 186.235C683.426 186.235 682.431 185.892 681.636 185.203C680.84 184.513 680.444 183.623 680.444 182.535C680.444 182.137 680.508 181.742 680.643 181.344L684.221 167.7L685.774 169.173C684.819 169.25 683.898 169.351 683.009 169.47C682.12 169.59 681.279 169.742 680.483 169.927C680.695 169.186 681 168.548 681.397 168.017C681.795 167.486 682.253 167.078 682.769 166.784C683.287 166.492 683.825 166.347 684.381 166.347C684.99 166.347 685.54 166.554 686.033 166.965C686.523 167.376 686.887 167.991 687.124 168.813Z" fill="#665A40"/>
<path d="M134.201 68.9755C132.342 68.9755 130.834 67.5085 130.834 65.6985C130.834 63.8885 132.342 62.4215 134.201 62.4215C136.061 62.4215 137.568 63.8885 137.568 65.6985C137.568 67.5085 136.061 68.9755 134.201 68.9755ZM57.3038 86.4105C58.6748 91.4105 61.1858 95.6465 69.2288 99.3925C72.2028 100.777 75.6248 101.315 79.3628 101.315C85.6608 101.315 92.8528 99.7875 100.305 98.2035C113.955 95.3025 128.067 92.3025 135.076 99.8115L138.272 96.8275C129.577 87.5105 114.235 90.7725 99.3958 93.9255C88.7468 96.1885 77.7358 98.5305 71.0758 95.4275C62.4008 91.3875 62.7848 85.8645 62.7908 82.5945C66.5238 83.6755 68.3338 84.7575 72.3348 85.0225C72.3348 85.0225 92.9238 87.8525 116.673 79.8325C122.271 78.3815 135.582 77.7445 143.083 77.7915C146.511 78.0135 149.743 77.2805 152.781 75.5925C157.508 70.8265 137.264 56.0265 135.358 54.8505C134.244 48.3655 130.481 44.1885 124.067 42.3195C120.583 44.4325 119.461 47.2595 120.7 50.8025C91.1458 40.2495 54.0068 38.5385 56.3478 78.5695C56.5118 81.3545 57.3038 86.4105 57.3038 86.4105Z" fill="#665A40"/>
<path d="M198.54 43.8656C196.464 34.3066 194.671 26.0516 194.799 18.6346C194.886 13.6306 193.883 10.1256 191.819 8.21758C190.571 7.06157 189.29 6.80859 188.579 6.7686C186.833 6.3546 185.192 6.73758 183.808 7.89159C182.983 8.57759 182.272 9.58757 181.661 10.8596C180.478 6.05658 178.754 2.83659 176.494 1.26259C174.419 -0.182419 172.635 0.237595 172.3 0.337601L172.198 0.369583C169.084 1.45158 165.317 5.17758 165.414 23.0756C165.072 22.9596 164.712 22.8776 164.321 22.8606C160.409 22.7036 157.845 28.2416 156.912 30.6356L156.842 30.8476C150.934 52.2936 160.017 72.2256 160.406 73.0636L164.37 71.2226C164.282 71.0326 155.615 51.9396 161.026 32.1186C161.87 29.9966 163.304 27.7486 164.085 27.2866C164.334 27.5326 164.955 28.3476 165.652 30.6986C165.754 32.5936 165.885 34.5936 166.058 36.7346C167.322 52.4646 170.043 67.9006 170.069 68.0546L174.374 67.2906C174.347 67.1376 171.658 51.8826 170.411 36.3576C168.266 9.62259 172.165 5.29057 173.425 4.59258C174.057 4.77357 177.826 6.55157 178.917 22.5156L178.932 22.5146C177.177 38.5116 179.339 61.8446 179.968 67.9596L184.316 67.5116C184.303 67.3846 183.002 54.6166 182.732 41.1886C182.256 17.4766 185.282 12.3516 186.605 11.2496C186.946 10.9666 187.214 10.9146 187.667 11.0476L187.897 11.2816L188.408 11.1456C189.041 11.3156 190.526 12.9086 190.43 18.5576C190.292 26.4826 192.135 34.9686 194.269 44.7936C198.873 65.9996 204.604 92.3916 192.714 127.546C178.292 170.183 150.419 188.138 130.572 186.775C117.61 185.885 108.627 177.262 105.924 163.12C104.254 154.385 107.823 143.9 115.973 133.599C127.109 119.522 145.052 108.096 156.821 107.587L158.729 107.504L158.902 105.602C159.951 94.1006 163.467 86.1006 169.351 81.8236C175.436 77.4016 182.295 78.4476 183.369 78.6466C183.769 78.8326 184.572 79.3276 184.742 80.0006C184.931 80.7466 184.402 81.9286 183.29 83.2566C181.845 84.6036 169.844 96.4886 165.795 123.444C161.968 148.918 148.005 157.408 141.295 161.488L140.436 162.011L142.728 165.734L143.565 165.222C150.843 160.797 165.986 151.59 170.117 124.093C172.19 110.291 176.489 100.777 179.73 95.2256C183.238 89.2186 186.297 86.4296 186.322 86.4066L186.531 86.1936C188.746 83.6006 189.564 81.1366 188.963 78.8676C188.149 75.7956 185.1 74.6156 184.755 74.4916L184.513 74.4206C184.13 74.3306 175.084 72.3006 166.848 78.2406C160.195 83.0376 156.126 91.4886 154.74 103.375C141.756 104.917 124.007 116.399 112.546 130.887C106.527 138.494 103.45 145.268 102.078 151.012C100.187 143.175 95.7617 136.123 91.6177 130.887C80.1557 116.399 62.4077 104.917 49.4237 103.375C48.0367 91.4886 43.9687 83.0376 37.3157 78.2406C29.0797 72.3016 20.0327 74.3306 19.6507 74.4206L19.4087 74.4916C19.0637 74.6156 16.0147 75.7956 15.1997 78.8676C14.5997 81.1366 15.4167 83.6006 17.6327 86.1936L17.8367 86.4026C17.8667 86.4296 20.9257 89.2186 24.4337 95.2256C27.6747 100.777 31.9727 110.291 34.0467 124.093C38.1777 151.591 53.3217 160.798 60.6007 165.222L61.4367 165.734L63.7277 162.011L62.8707 161.488C56.1597 157.408 42.1957 148.919 38.3677 123.444C34.3187 96.4886 22.3187 84.6036 20.8737 83.2566C19.7617 81.9286 19.2327 80.7466 19.4217 80.0006C19.5937 79.3216 20.4087 78.8236 20.7877 78.6486C21.8677 78.4476 28.7287 77.4016 34.8127 81.8236C40.6967 86.1006 44.2127 94.1006 45.2607 105.602L45.4347 107.504L47.3427 107.587C59.1117 108.096 77.0547 119.522 88.1897 133.598C96.3407 143.9 99.9097 154.385 98.2397 163.12C95.5367 177.262 86.5527 185.885 73.5927 186.775C53.7757 188.128 25.8717 170.184 11.4497 127.546C-0.440286 92.3916 5.29072 65.9996 9.89472 44.7936C12.0287 34.9686 13.8717 26.4826 13.7337 18.5586C13.6377 12.9536 15.0997 11.3416 15.7397 11.1506L15.9107 11.2186L16.4967 11.0476C16.9507 10.9146 17.2187 10.9666 17.5587 11.2496C18.8817 12.3516 21.9077 17.4766 21.4317 41.1886C21.1617 54.6166 19.8607 67.3846 19.8477 67.5116L24.1957 67.9596C24.8247 61.8446 26.9867 38.5116 25.2317 22.5146L25.2467 22.5156C26.3377 6.55058 30.1077 4.77357 30.7397 4.59258C31.9987 5.29057 35.8987 9.62259 33.7517 36.3576C32.5057 51.8826 29.8167 67.1376 29.7897 67.2906L34.0947 68.0546C34.1207 67.9006 36.8417 52.4646 38.1057 36.7346C38.2777 34.5936 38.4097 32.5926 38.5117 30.6976C39.2087 28.3466 39.8307 27.5326 40.0777 27.2866C40.8637 27.7446 42.2747 29.9586 43.1387 32.1206C48.5477 51.9406 39.8827 71.0326 39.7937 71.2226L43.7587 73.0636C44.1477 72.2256 53.2307 52.2926 47.3207 30.8476L47.2507 30.6356C46.3187 28.2406 43.7657 22.6876 39.8427 22.8606C39.4517 22.8776 39.0917 22.9586 38.7497 23.0756C38.8467 5.17758 35.0807 1.45158 31.9667 0.369583L31.8647 0.336594C31.5297 0.238586 29.7477 -0.183411 27.6707 1.26259C25.4107 2.83659 23.6857 6.05757 22.5027 10.8596C21.8917 9.58757 21.1807 8.57759 20.3557 7.89159C18.9717 6.73758 17.3267 6.3526 15.5847 6.7686C14.8737 6.80859 13.5927 7.06157 12.3447 8.21758C10.2807 10.1256 9.27772 13.6306 9.36472 18.6346C9.49272 26.0516 7.69972 34.3066 5.62372 43.8656C0.904718 65.5986 -4.96929 92.6456 7.31071 128.947C14.1477 149.165 24.6047 165.747 37.5487 176.903C48.3347 186.199 60.2557 191.221 71.3987 191.221C72.2337 191.221 73.0657 191.192 73.8927 191.136C88.1337 190.157 98.5357 180.78 102.082 165.936C105.628 180.78 116.029 190.157 130.271 191.136C131.099 191.193 131.929 191.221 132.765 191.221C143.907 191.221 155.83 186.198 166.616 176.902C179.56 165.747 190.016 149.165 196.853 128.947C209.133 92.6456 203.259 65.5986 198.54 43.8656Z" fill="#665A40"/>
</svg>
